<svg width="87" height="24" viewBox="0 0 87 24" fill="none" xmlns="http://www.w3.org/2000/svg">
<g filter="url(#filter0_d_1_80)">
<path d="M7.56818 3.65909L9.95455 11.8636H10.0455L12.4318 3.65909H16L12.1591 15.2955H7.84091L4 3.65909H7.56818Z" fill="white"/>
<path d="M17.1207 15.2955V3.65909H25.5071V6.20455H20.2798V8.20455H25.0753V10.75H20.2798V12.75H25.4844V15.2955H17.1207ZM19.5526 2.63636C19.1662 2.63636 18.8385 2.50758 18.5696 2.25C18.3007 1.99242 18.1662 1.68182 18.1662 1.31818C18.1662 0.954545 18.3007 0.643939 18.5696 0.386364C18.8385 0.128788 19.1662 0 19.5526 0C19.9276 0 20.2476 0.128788 20.5128 0.386364C20.7817 0.643939 20.9162 0.954545 20.9162 1.31818C20.9162 1.68182 20.7817 1.99242 20.5128 2.25C20.2476 2.50758 19.9276 2.63636 19.5526 2.63636ZM23.1662 2.63636C22.7798 2.63636 22.4522 2.50758 22.1832 2.25C21.9143 1.99242 21.7798 1.68182 21.7798 1.31818C21.7798 0.954545 21.9143 0.643939 22.1832 0.386364C22.4522 0.128788 22.7798 0 23.1662 0C23.5412 0 23.8613 0.128788 24.1264 0.386364C24.3954 0.643939 24.5298 0.954545 24.5298 1.31818C24.5298 1.68182 24.3954 1.99242 24.1264 2.25C23.8613 2.50758 23.5412 2.63636 23.1662 2.63636Z" fill="white"/>
<path d="M27.0739 15.2955V3.65909H32.0966C32.9602 3.65909 33.7159 3.81629 34.3636 4.13068C35.0114 4.44508 35.5152 4.89773 35.875 5.48864C36.2348 6.07955 36.4148 6.78788 36.4148 7.61364C36.4148 8.44697 36.2292 9.14962 35.858 9.72159C35.4905 10.2936 34.9735 10.7254 34.3068 11.017C33.6439 11.3087 32.8693 11.4545 31.983 11.4545H28.983V9H31.3466C31.7178 9 32.0341 8.95455 32.2955 8.86364C32.5606 8.76894 32.7633 8.61932 32.9034 8.41477C33.0473 8.21023 33.1193 7.94318 33.1193 7.61364C33.1193 7.2803 33.0473 7.00947 32.9034 6.80114C32.7633 6.58902 32.5606 6.43371 32.2955 6.33523C32.0341 6.23295 31.7178 6.18182 31.3466 6.18182H30.233V15.2955H27.0739ZM33.892 9.95455L36.8011 15.2955H33.3693L30.5284 9.95455H33.892Z" fill="white"/>
<path d="M44.0341 7.29545C44.0038 6.91667 43.8617 6.62121 43.608 6.40909C43.358 6.19697 42.9773 6.09091 42.4659 6.09091C42.1402 6.09091 41.8731 6.13068 41.6648 6.21023C41.4602 6.28598 41.3087 6.39015 41.2102 6.52273C41.1117 6.6553 41.0606 6.80682 41.0568 6.97727C41.0492 7.11742 41.0739 7.24432 41.1307 7.35795C41.1913 7.4678 41.286 7.56818 41.4148 7.65909C41.5436 7.74621 41.7083 7.82576 41.9091 7.89773C42.1098 7.9697 42.3485 8.03409 42.625 8.09091L43.5795 8.29545C44.2235 8.43182 44.7746 8.61174 45.233 8.83523C45.6913 9.05871 46.0663 9.32197 46.358 9.625C46.6496 9.92424 46.8636 10.2614 47 10.6364C47.1402 11.0114 47.2121 11.4205 47.2159 11.8636C47.2121 12.6288 47.0208 13.2765 46.642 13.8068C46.2633 14.3371 45.7216 14.7405 45.017 15.017C44.3163 15.2936 43.4735 15.4318 42.4886 15.4318C41.4773 15.4318 40.5947 15.2822 39.8409 14.983C39.0909 14.6837 38.5076 14.2235 38.0909 13.6023C37.678 12.9773 37.4697 12.178 37.4659 11.2045H40.4659C40.4848 11.5606 40.5739 11.8598 40.733 12.1023C40.892 12.3447 41.1155 12.5284 41.4034 12.6534C41.6951 12.7784 42.0417 12.8409 42.4432 12.8409C42.7803 12.8409 43.0625 12.7992 43.2898 12.7159C43.517 12.6326 43.6894 12.517 43.8068 12.3693C43.9242 12.2216 43.9848 12.053 43.9886 11.8636C43.9848 11.6856 43.9261 11.5303 43.8125 11.3977C43.7027 11.2614 43.5208 11.1402 43.267 11.0341C43.0133 10.9242 42.6705 10.822 42.2386 10.7273L41.0795 10.4773C40.0492 10.2538 39.2367 9.88068 38.642 9.35795C38.0511 8.83144 37.7576 8.11364 37.7614 7.20455C37.7576 6.46591 37.9545 5.82008 38.3523 5.26705C38.7538 4.71023 39.3087 4.27652 40.017 3.96591C40.7292 3.6553 41.5455 3.5 42.4659 3.5C43.4053 3.5 44.2178 3.6572 44.9034 3.97159C45.589 4.28598 46.1174 4.72917 46.4886 5.30114C46.8636 5.86932 47.053 6.53409 47.0568 7.29545H44.0341Z" fill="white"/>
<path d="M48.0994 6.20455V3.65909H58.2131V6.20455H54.7131V15.2955H51.5994V6.20455H48.0994Z" fill="white"/>
<path d="M59.402 15.2955V3.65909H62.5611V8.36364H62.7202L66.2202 3.65909H69.902L65.9702 8.84091L69.9929 15.2955H66.2202L63.6065 10.9318L62.5611 12.2955V15.2955H59.402Z" fill="white"/>
<path d="M73.8622 15.2955H70.4531L74.294 3.65909H78.6122L82.4531 15.2955H79.044L76.4986 6.86364H76.4077L73.8622 15.2955ZM73.2259 10.7045H79.6349V13.0682H73.2259V10.7045Z" fill="white"/>
</g>
<defs>
<filter id="filter0_d_1_80" x="0" y="0" width="86.4531" height="23.4318" filterUnits="userSpaceOnUse" color-interpolation-filters="sRGB">
<feFlood flood-opacity="0" result="BackgroundImageFix"/>
<feColorMatrix in="SourceAlpha" type="matrix" values="0 0 0 0 0 0 0 0 0 0 0 0 0 0 0 0 0 0 127 0" result="hardAlpha"/>
<feOffset dy="4"/>
<feGaussianBlur stdDeviation="2"/>
<feComposite in2="hardAlpha" operator="out"/>
<feColorMatrix type="matrix" values="0 0 0 0 0 0 0 0 0 0 0 0 0 0 0 0 0 0 0.25 0"/>
<feBlend mode="normal" in2="BackgroundImageFix" result="effect1_dropShadow_1_80"/>
<feBlend mode="normal" in="SourceGraphic" in2="effect1_dropShadow_1_80" result="shape"/>
</filter>
</defs>
</svg>
